REM DIRINDEX 1\2,1\3,1\4,1\5
REM DIRNAME "folder01","folder02","folder03","folder04","folder05"
TITLE ""
FILE "P1Q_t_1288-1297.mp3" MP3
  TRACK 01 AUDIO
    TITLE "0:"
    INDEX 01 00:00:00
  TRACK 02 AUDIO
    TITLE "3:cjc173_4832"
    INDEX 01 00:00:10
  TRACK 03 AUDIO
    TITLE "0:"
    INDEX 01 00:01:39
  TRACK 04 AUDIO
    TITLE "4:cjc173_4833"
    INDEX 01 00:01:61
  TRACK 05 AUDIO
    TITLE "0:"
    INDEX 01 00:04:55
  TRACK 06 AUDIO
    TITLE "5:cjc173_4834"
    INDEX 01 00:05:04
  TRACK 07 AUDIO
    TITLE "0:"
    INDEX 01 00:09:46
  TRACK 08 AUDIO
    TITLE "3:cjc173_4835"
    INDEX 01 00:10:19
  TRACK 09 AUDIO
    TITLE "0:"
    INDEX 01 00:11:47
  TRACK 10 AUDIO
    TITLE "4:cjc173_4836"
    INDEX 01 00:11:69
  TRACK 11 AUDIO
    TITLE "0:"
    INDEX 01 00:13:17
  TRACK 12 AUDIO
    TITLE "5:cjc173_4837"
    INDEX 01 00:13:36
  TRACK 13 AUDIO
    TITLE "0:"
    INDEX 01 00:18:55
  TRACK 14 AUDIO
    TITLE "3:cjc173_4838"
    INDEX 01 00:19:25
  TRACK 15 AUDIO
    TITLE "0:"
    INDEX 01 00:20:48
  TRACK 16 AUDIO
    TITLE "4:cjc173_4839"
    INDEX 01 00:20:70
  TRACK 17 AUDIO
    TITLE "0:"
    INDEX 01 00:23:33
  TRACK 18 AUDIO
    TITLE "5:cjc173_4840"
    INDEX 01 00:23:52
  TRACK 19 AUDIO
    TITLE "0:"
    INDEX 01 00:27:44
  TRACK 20 AUDIO
    TITLE "3:cjc173_4841"
    INDEX 01 00:28:16
  TRACK 21 AUDIO
    TITLE "0:"
    INDEX 01 00:29:41
  TRACK 22 AUDIO
    TITLE "4:cjc173_4842"
    INDEX 01 00:29:61
  TRACK 23 AUDIO
    TITLE "0:"
    INDEX 01 00:34:23
  TRACK 24 AUDIO
    TITLE "5:cjc173_4843"
    INDEX 01 00:34:43
  TRACK 25 AUDIO
    TITLE "0:"
    INDEX 01 00:39:42
  TRACK 26 AUDIO
    TITLE "3:cjc173_4844"
    INDEX 01 00:40:12
  TRACK 27 AUDIO
    TITLE "0:"
    INDEX 01 00:41:27
  TRACK 28 AUDIO
    TITLE "4:cjc173_4845"
    INDEX 01 00:41:46
  TRACK 29 AUDIO
    TITLE "0:"
    INDEX 01 00:46:03
  TRACK 30 AUDIO
    TITLE "5:cjc173_4846"
    INDEX 01 00:46:22
  TRACK 31 AUDIO
    TITLE "0:"
    INDEX 01 00:50:67
  TRACK 32 AUDIO
    TITLE "3:cjc173_4847"
    INDEX 01 00:51:35
  TRACK 33 AUDIO
    TITLE "0:"
    INDEX 01 00:52:44
  TRACK 34 AUDIO
    TITLE "4:cjc173_4848"
    INDEX 01 00:52:66
  TRACK 35 AUDIO
    TITLE "0:"
    INDEX 01 00:54:08
  TRACK 36 AUDIO
    TITLE "5:cjc173_4849"
    INDEX 01 00:54:28
  TRACK 37 AUDIO
    TITLE "0:"
    INDEX 01 00:58:16
  TRACK 38 AUDIO
    TITLE "3:cjc173_4850"
    INDEX 01 00:58:61
  TRACK 39 AUDIO
    TITLE "0:"
    INDEX 01 01:00:12
  TRACK 40 AUDIO
    TITLE "4:cjc173_4851"
    INDEX 01 01:00:34
  TRACK 41 AUDIO
    TITLE "0:"
    INDEX 01 01:02:70
  TRACK 42 AUDIO
    TITLE "5:cjc173_4852"
    INDEX 01 01:03:15
  TRACK 43 AUDIO
    TITLE "0:"
    INDEX 01 01:07:65
  TRACK 44 AUDIO
    TITLE "3:cjc173_4853"
    INDEX 01 01:08:36
  TRACK 45 AUDIO
    TITLE "0:"
    INDEX 01 01:09:35
  TRACK 46 AUDIO
    TITLE "4:cjc173_4854"
    INDEX 01 01:09:60
  TRACK 47 AUDIO
    TITLE "0:"
    INDEX 01 01:13:35
  TRACK 48 AUDIO
    TITLE "5:cjc173_4855"
    INDEX 01 01:13:54
  TRACK 49 AUDIO
    TITLE "0:"
    INDEX 01 01:18:48
  TRACK 50 AUDIO
    TITLE "3:cjc173_4856"
    INDEX 01 01:19:18
  TRACK 51 AUDIO
    TITLE "0:"
    INDEX 01 01:20:39
  TRACK 52 AUDIO
    TITLE "4:cjc173_4857"
    INDEX 01 01:20:60
  TRACK 53 AUDIO
    TITLE "0:"
    INDEX 01 01:23:51
  TRACK 54 AUDIO
    TITLE "5:cjc173_4858"
    INDEX 01 01:23:70
  TRACK 55 AUDIO
    TITLE "0:"
    INDEX 01 01:27:58
  TRACK 56 AUDIO
    TITLE "3:cjc173_4859"
    INDEX 01 01:28:30
  TRACK 57 AUDIO
    TITLE "0:"
    INDEX 01 01:29:49
  TRACK 58 AUDIO
    TITLE "4:cjc173_4860"
    INDEX 01 01:29:71
  TRACK 59 AUDIO
    TITLE "0:"
    INDEX 01 01:32:46
  TRACK 60 AUDIO
    TITLE "5:cjc173_4861"
    INDEX 01 01:32:63
  TRACK 61 AUDIO
    TITLE "0:"
    INDEX 01 01:37:10
